HIERARCHY
ROOT Hips
{
	OFFSET 0.000000 35.082581 0.000000
	CHANNELS 6 Xposition Yposition Zposition Xrotation Yrotation Zrotation 
	JOINT Spine
	{
		OFFSET 0.000000 6.876099 0.125700
		CHANNELS 3 Xrotation Yrotation Zrotation
		JOINT Spine1
		{
			OFFSET 0.000000 5.730043 0.104720
			CHANNELS 3 Xrotation Yrotation Zrotation
			JOINT Spine1_split
			{
				OFFSET 0.000000 5.730043 0.104720
				CHANNELS 3 Xrotation Yrotation Zrotation
				JOINT Spine2
				{
					OFFSET 0.000000 5.730043 0.104720
					CHANNELS 3 Xrotation Yrotation Zrotation
					JOINT Neck
					{
						OFFSET 0.000000 10.314075 0.188496
						CHANNELS 3 Xrotation Yrotation Zrotation
						JOINT Head
						{
							OFFSET 0.000000 7.643700 -2.377400
							CHANNELS 3 Xrotation Yrotation Zrotation
							JOINT HeadTop_End
							{
								OFFSET 0.000000 43.788605 -13.619600
								CHANNELS 3 Xrotation Yrotation Zrotation
								End Site
								{
									OFFSET 0.000000 0.000000 0.000000
								}
							}
						}
					}
					JOINT LeftShoulder
					{
						OFFSET 2.196100 4.412489 0.087492
						CHANNELS 3 Xrotation Yrotation Zrotation
						JOINT LeftShoulder_split
						{
							OFFSET 2.196100 4.412489 0.087492
							CHANNELS 3 Xrotation Yrotation Zrotation
							JOINT LeftArm
							{
								OFFSET 8.771219 -2.981674 -0.026999
								CHANNELS 3 Xrotation Yrotation Zrotation
								JOINT LeftForeArm
								{
									OFFSET 8.512804 0.000000 -0.000000
									CHANNELS 3 Xrotation Yrotation Zrotation
									JOINT LeftHand
									{
										OFFSET 18.484802 0.000000 -0.000000
										CHANNELS 3 Xrotation Yrotation Zrotation
										JOINT LeftHandThumb1
										{
											OFFSET 2.499420 -1.158070 2.653252
											CHANNELS 3 Xrotation Yrotation Zrotation
											JOINT LeftHandThumb2
											{
												OFFSET 2.370079 -1.368366 1.368366
												CHANNELS 3 Xrotation Yrotation Zrotation
												JOINT LeftHandThumb3
												{
													OFFSET 2.676727 -1.545410 1.545409
													CHANNELS 3 Xrotation Yrotation Zrotation
													JOINT LeftHandThumb4
													{
														OFFSET 1.692226 -0.977005 0.977007
														CHANNELS 3 Xrotation Yrotation Zrotation
														End Site
														{
															OFFSET 0.000000 0.000000 0.000000
														}
													}
												}
											}
										}
										JOINT LeftHandIndex1
										{
											OFFSET 7.924831 -0.457527 2.345128
											CHANNELS 3 Xrotation Yrotation Zrotation
											JOINT LeftHandIndex2
											{
												OFFSET 3.643303 0.000000 0.000000
												CHANNELS 3 Xrotation Yrotation Zrotation
												JOINT LeftHandIndex3
												{
													OFFSET 3.810799 0.000000 0.000000
													CHANNELS 3 Xrotation Yrotation Zrotation
													JOINT LeftHandIndex4
													{
														OFFSET 2.403702 0.000000 0.000000
														CHANNELS 3 Xrotation Yrotation Zrotation
														End Site
														{
															OFFSET 0.000000 0.000000 0.000000
														}
													}
												}
											}
										}
										JOINT LeftHandMiddle1
										{
											OFFSET 8.563995 0.000000 -0.000000
											CHANNELS 3 Xrotation Yrotation Zrotation
											JOINT LeftHandMiddle2
											{
												OFFSET 3.861618 0.000000 0.000000
												CHANNELS 3 Xrotation Yrotation Zrotation
												JOINT LeftHandMiddle3
												{
													OFFSET 3.701603 0.000000 0.000000
													CHANNELS 3 Xrotation Yrotation Zrotation
													JOINT LeftHandMiddle4
													{
														OFFSET 2.322544 0.000000 0.000000
														CHANNELS 3 Xrotation Yrotation Zrotation
														End Site
														{
															OFFSET 0.000000 0.000000 0.000000
														}
													}
												}
											}
										}
										JOINT LeftHandRing1
										{
											OFFSET 8.426460 -0.424637 -3.286992
											CHANNELS 3 Xrotation Yrotation Zrotation
											JOINT LeftHandRing2
											{
												OFFSET 3.126408 0.000000 0.000000
												CHANNELS 3 Xrotation Yrotation Zrotation
												JOINT LeftHandRing3
												{
													OFFSET 3.085026 0.000000 0.000000
													CHANNELS 3 Xrotation Yrotation Zrotation
													JOINT LeftHandRing4
													{
														OFFSET 1.644005 0.000000 0.000000
														CHANNELS 3 Xrotation Yrotation Zrotation
														End Site
														{
															OFFSET 0.000000 0.000000 0.000000
														}
													}
												}
											}
										}
									}
								}
							}
						}
					}
					JOINT RightShoulder
					{
						OFFSET -2.196100 4.412496 0.070690
						CHANNELS 3 Xrotation Yrotation Zrotation
						JOINT RightShoulder_split
						{
							OFFSET -2.196100 4.412496 0.070690
							CHANNELS 3 Xrotation Yrotation Zrotation
							JOINT RightArm
							{
								OFFSET -8.771282 -2.981682 -0.094208
								CHANNELS 3 Xrotation Yrotation Zrotation
								JOINT RightForeArm
								{
									OFFSET -8.494598 0.000000 0.000000
									CHANNELS 3 Xrotation Yrotation Zrotation
									JOINT RightHand
									{
										OFFSET -18.483803 0.000000 0.000001
										CHANNELS 3 Xrotation Yrotation Zrotation
										JOINT RightHandThumb1
										{
											OFFSET -2.527351 -1.008072 2.575253
											CHANNELS 3 Xrotation Yrotation Zrotation
											JOINT RightHandThumb2
											{
												OFFSET -2.321518 -1.340328 1.340329
												CHANNELS 3 Xrotation Yrotation Zrotation
												JOINT RightHandThumb3
												{
													OFFSET -2.657753 -1.534454 1.534455
													CHANNELS 3 Xrotation Yrotation Zrotation
													JOINT RightHandThumb4
													{
														OFFSET -1.807510 -1.043568 1.043567
														CHANNELS 3 Xrotation Yrotation Zrotation
														End Site
														{
															OFFSET 0.000000 0.000000 0.000000
														}
													}
												}
											}
										}
										JOINT RightHandIndex1
										{
											OFFSET -8.811420 0.015533 2.887987
											CHANNELS 3 Xrotation Yrotation Zrotation
											JOINT RightHandIndex2
											{
												OFFSET -3.537502 0.000000 0.000000
												CHANNELS 3 Xrotation Yrotation Zrotation
												JOINT RightHandIndex3
												{
													OFFSET -3.356201 0.000000 0.000000
													CHANNELS 3 Xrotation Yrotation Zrotation
													JOINT RightHandIndex4
													{
														OFFSET -1.933098 0.000000 0.000000
														CHANNELS 3 Xrotation Yrotation Zrotation
														End Site
														{
															OFFSET 0.000000 0.000000 0.000000
														}
													}
												}
											}
										}
										JOINT RightHandMiddle1
										{
											OFFSET -8.178135 0.000000 0.000000
											CHANNELS 3 Xrotation Yrotation Zrotation
											JOINT RightHandMiddle2
											{
												OFFSET -3.901302 0.000000 0.000000
												CHANNELS 3 Xrotation Yrotation Zrotation
												JOINT RightHandMiddle3
												{
													OFFSET -3.909599 0.000000 0.000000
													CHANNELS 3 Xrotation Yrotation Zrotation
													JOINT RightHandMiddle4
													{
														OFFSET -2.376003 0.000000 0.000000
														CHANNELS 3 Xrotation Yrotation Zrotation
														End Site
														{
															OFFSET 0.000000 0.000000 0.000000
														}
													}
												}
											}
										}
										JOINT RightHandRing1
										{
											OFFSET -7.559013 0.014137 -2.865403
											CHANNELS 3 Xrotation Yrotation Zrotation
											JOINT RightHandRing2
											{
												OFFSET -3.449306 0.000000 0.000000
												CHANNELS 3 Xrotation Yrotation Zrotation
												JOINT RightHandRing3
												{
													OFFSET -3.362106 0.000000 0.000000
													CHANNELS 3 Xrotation Yrotation Zrotation
													JOINT RightHandRing4
													{
														OFFSET -2.076401 0.000000 0.000000
														CHANNELS 3 Xrotation Yrotation Zrotation
														End Site
														{
															OFFSET 0.000000 0.000000 0.000000
														}
													}
												}
											}
										}
									}
								}
							}
						}
					}
				}
			}
		}
	}
	JOINT LeftUpLeg
	{
		OFFSET 10.205400 -3.823500 0.155100
		CHANNELS 3 Xrotation Yrotation Zrotation
		JOINT LeftLeg
		{
			OFFSET 0.708757 -12.982077 0.567790
			CHANNELS 3 Xrotation Yrotation Zrotation
			JOINT LeftFoot
			{
				OFFSET -0.708756 -10.717838 -2.184338
				CHANNELS 3 Xrotation Yrotation Zrotation
				JOINT LeftToeBase
				{
					OFFSET 0.108149 -7.191104 7.560241
					CHANNELS 3 Xrotation Yrotation Zrotation
					JOINT LeftToe_End
					{
						OFFSET 0.070230 0.081724 4.490308
						CHANNELS 3 Xrotation Yrotation Zrotation
						End Site
						{
							OFFSET 0.000000 0.000000 0.000000
						}
					}
				}
			}
		}
	}
	JOINT RightUpLeg
	{
		OFFSET -10.205400 -3.823500 0.005500
		CHANNELS 3 Xrotation Yrotation Zrotation
		JOINT RightLeg
		{
			OFFSET -0.708756 -12.982134 0.610632
			CHANNELS 3 Xrotation Yrotation Zrotation
			JOINT RightFoot
			{
				OFFSET 0.708754 -10.717769 -1.945823
				CHANNELS 3 Xrotation Yrotation Zrotation
				JOINT RightToeBase
				{
					OFFSET -0.108140 -7.191069 7.372968
					CHANNELS 3 Xrotation Yrotation Zrotation
					JOINT RightToe_End
					{
						OFFSET -0.070227 0.081735 4.479403
						CHANNELS 3 Xrotation Yrotation Zrotation
						End Site
						{
							OFFSET 0.000000 0.000000 0.000000
						}
					}
				}
			}
		}
	}
}
MOTION
Frames: 5
Frame Time: 0.016667
6.637626 21.228243 -18.824915 49.313942 -31.640448 18.237575 30.787023 9.668553 1.638717 6.860067 2.066864 1.129960 0.000000 0.000000 0.000000 6.835842 2.135327 1.146297 -7.949789 -4.235516 1.372952 -21.131439 -17.422419 -7.101415 -0.000002 0.000000 -0.000002 5.673074 -23.734095 -9.066827 0.000000 0.000000 0.000000 -27.862346 -10.438785 -41.186474 -0.000002 -38.893457 0.000025 -42.320272 -3.346961 4.206377 -1.538530 3.693639 6.118942 3.939057 7.948721 0.746807 -0.579478 1.575002 2.538725 -0.000005 0.000000 -0.000000 0.298635 2.009589 -16.903096 0.539665 2.676798 -22.793533 0.036402 0.708425 -5.880839 0.000000 -0.000003 -0.000001 0.298064 2.007740 -16.887103 0.540416 2.678587 -22.809548 0.036413 0.708424 -5.880846 0.000000 0.000001 -0.000002 0.298633 2.009594 -16.903103 0.539668 2.676798 -22.793533 0.036386 0.708418 -5.880833 0.000001 -0.000001 0.000001 -0.454787 29.350986 14.140366 0.000000 0.000000 0.000000 -42.011916 48.862740 12.344900 0.000006 14.620237 -0.000027 -4.045428 -7.800927 -22.899235 -1.848203 -3.584402 -6.569206 4.637209 -8.634132 -0.225420 -1.273766 0.137309 -2.094860 -0.000000 -0.000002 -0.000000 0.480693 -2.544872 21.389424 1.003308 -3.603113 31.111310 0.099700 -1.175691 9.694893 0.000000 -0.000001 -0.000002 0.480692 -2.544865 21.389427 1.003309 -3.603121 31.111303 0.099703 -1.175689 9.694905 0.000001 -0.000001 0.000000 0.480706 -2.544867 21.389427 1.003313 -3.603107 31.111324 0.099694 -1.175691 9.694896 0.000000 0.000000 -0.000001 -50.078718 -0.980947 -0.780358 111.807758 -3.534650 0.926858 -14.458392 -5.658016 -6.137770 30.321607 -35.408459 -48.526691 -0.000001 -0.000002 0.000000 -95.002433 -15.314522 -13.073512 112.976253 -13.171080 4.797866 -46.203648 -12.886217 6.393807 -10.406635 0.000054 0.000006 -0.000000 -0.000001 0.000000 
6.634360 21.370239 -18.651880 48.873634 -32.135606 18.319457 30.834766 9.535078 1.312206 6.860444 2.055450 1.057251 0.000000 0.000000 0.000000 6.836478 2.123757 1.073454 -7.756134 -4.044936 1.169385 -20.994364 -16.671653 -7.271154 -0.000000 0.000000 -0.000002 5.677176 -23.780728 -9.018324 0.000000 0.000000 0.000000 -27.386381 -9.567776 -41.312351 -0.000007 -39.455189 0.000002 -42.046945 -3.027416 4.146426 -1.537390 3.696262 6.101087 3.939063 7.948709 0.746802 -0.579475 1.574995 2.538708 -0.000002 0.000001 -0.000002 0.298621 2.009592 -16.903110 0.539689 2.676796 -22.793547 0.036383 0.708417 -5.880832 0.000000 -0.000000 0.000000 0.298060 2.007742 -16.887105 0.540424 2.678575 -22.809562 0.036400 0.708427 -5.880828 0.000000 0.000000 0.000001 0.298625 2.009596 -16.903101 0.539669 2.676799 -22.793542 0.036395 0.708414 -5.880834 0.000002 0.000001 -0.000004 -0.367064 28.852369 13.849359 0.000000 0.000000 0.000000 -40.871572 48.371523 12.524492 -0.000003 16.563846 -0.000001 -4.109980 -7.929991 -21.633355 -1.847398 -3.586380 -6.556330 4.637211 -8.634133 -0.225400 -1.273767 0.137309 -2.094868 0.000002 0.000003 0.000002 0.480704 -2.544862 21.389410 1.003308 -3.603116 31.111293 0.099716 -1.175692 9.694893 0.000001 -0.000001 -0.000003 0.480685 -2.544867 21.389420 1.003325 -3.603121 31.111303 0.099707 -1.175693 9.694892 -0.000000 -0.000000 -0.000001 0.480705 -2.544862 21.389424 1.003304 -3.603116 31.111300 0.099710 -1.175696 9.694895 0.000001 -0.000000 -0.000001 -51.896218 -1.556075 0.073962 112.993971 -3.512293 0.539028 -13.345893 -5.183505 -6.187787 -61.259864 -22.737734 16.285278 -0.000002 0.000001 -0.000003 -93.586644 -14.911018 -13.118591 112.190105 -12.579221 4.888306 -46.170685 -12.910495 6.640498 -10.227084 0.000074 0.000005 0.000000 -0.000000 0.000000 
6.642759 21.513956 -18.460718 48.380672 -32.625300 18.408531 30.947078 9.414664 0.942358 6.900513 2.048719 0.955031 0.000000 0.000000 0.000000 6.876928 2.117282 0.970893 -7.571703 -3.834393 0.935131 -20.880402 -15.870590 -7.421777 -0.000001 0.000003 0.000000 5.697512 -23.899185 -8.949564 0.000000 0.000000 0.000000 -27.065956 -8.692579 -41.259848 0.000034 -40.071600 0.000026 -41.576485 -2.697389 3.764284 -1.540050 3.690181 6.142365 3.939057 7.948720 0.746802 -0.579466 1.574999 2.538715 -0.000004 0.000003 -0.000003 0.298615 2.009581 -16.903105 0.539677 2.676804 -22.793550 0.036393 0.708408 -5.880820 -0.000001 -0.000000 0.000003 0.298064 2.007738 -16.887091 0.540423 2.678590 -22.809574 0.036388 0.708416 -5.880815 -0.000001 0.000000 -0.000001 0.298602 2.009583 -16.903106 0.539695 2.676807 -22.793552 0.036378 0.708406 -5.880818 -0.000001 -0.000001 0.000001 -0.244482 28.311470 13.397225 0.000000 0.000000 0.000000 -39.815895 48.075280 12.700989 0.000000 18.268898 -0.000000 -4.377008 -7.996920 -20.176833 -1.846511 -3.588587 -6.542167 4.637206 -8.634130 -0.225407 -1.273764 0.137305 -2.094867 0.000000 0.000001 -0.000001 0.480685 -2.544875 21.389403 1.003318 -3.603119 31.111297 0.099712 -1.175694 9.694897 0.000001 0.000000 -0.000001 0.480687 -2.544868 21.389420 1.003316 -3.603120 31.111293 0.099697 -1.175696 9.694902 -0.000001 -0.000000 -0.000002 0.480689 -2.544872 21.389412 1.003332 -3.603112 31.111303 0.099686 -1.175695 9.694893 0.000001 -0.000000 -0.000001 -53.738450 -2.126428 0.800367 114.072014 -3.893249 0.395827 -12.101821 -4.359725 -6.544441 -58.707102 -33.084466 30.774889 -0.000000 -0.000003 0.000000 -92.134061 -14.411926 -13.275952 111.410665 -11.935646 4.976161 -46.139174 -12.930437 6.939400 -10.059930 0.000033 0.000006 -0.000000 0.000001 -0.000001 
6.656403 21.669180 -18.254187 47.798630 -33.130037 18.518789 31.156564 9.296633 0.497669 6.923778 2.044796 0.861481 0.000000 0.000000 0.000000 6.900696 2.113034 0.877182 -7.371915 -3.600008 0.660440 -20.823140 -15.011127 -7.545699 -0.000004 -0.000003 -0.000000 5.758445 -24.143189 -8.911079 0.000000 0.000000 0.000000 -26.806430 -7.789677 -40.855579 0.000003 -40.789712 -0.000007 -40.997452 -2.407527 3.305841 -1.540039 3.690184 6.142366 3.939037 7.948710 0.746803 -0.579466 1.575003 2.538713 -0.000003 0.000002 -0.000000 0.298639 2.009591 -16.903081 0.539667 2.676797 -22.793555 0.036383 0.708419 -5.880809 0.000000 0.000002 -0.000001 0.298057 2.007752 -16.887067 0.540423 2.678579 -22.809574 0.036391 0.708418 -5.880811 0.000002 -0.000000 -0.000001 0.298627 2.009597 -16.903084 0.539681 2.676796 -22.793545 0.036390 0.708426 -5.880807 -0.000001 -0.000002 0.000001 -0.090528 27.840283 12.771112 0.000000 0.000000 0.000000 -38.951619 47.768779 12.863101 -0.000024 19.980752 0.000004 -4.789522 -8.173844 -18.486426 -1.849252 -3.581784 -6.586130 4.637205 -8.634133 -0.225405 -1.273766 0.137311 -2.094873 0.000003 -0.000002 -0.000007 0.480687 -2.544863 21.389402 1.003319 -3.603122 31.111314 0.099709 -1.175695 9.694882 0.000001 0.000001 0.000000 0.480680 -2.544868 21.389419 1.003327 -3.603123 31.111303 0.099720 -1.175700 9.694886 -0.000000 -0.000000 0.000002 0.480687 -2.544869 21.389424 1.003320 -3.603116 31.111314 0.099699 -1.175696 9.694875 -0.000001 0.000000 0.000002 -55.463011 -2.726775 1.403633 115.057200 -4.505614 0.379934 -11.011511 -3.796750 -7.131696 -64.000963 -33.018678 25.910893 0.000000 0.000000 -0.000000 -90.612725 -13.835485 -13.459859 110.610932 -11.300525 5.025694 -46.116607 -12.992189 7.233475 -9.820337 0.000048 0.000013 -0.000000 0.000001 -0.000000 
6.674352 21.837708 -18.024969 47.176707 -33.648814 18.643109 31.417422 9.184674 -0.007351 6.973904 2.045119 0.742942 0.000000 0.000000 0.000000 6.951630 2.112849 0.758491 -7.147385 -3.347714 0.366292 -20.800945 -14.109168 -7.588872 -0.000002 -0.000003 0.000002 5.880275 -24.606315 -8.861687 0.000000 0.000000 0.000000 -26.458080 -6.906718 -40.061566 -0.000007 -41.627431 -0.000006 -40.522017 -2.265953 3.133728 -1.540034 3.690182 6.142356 3.939055 7.948715 0.746819 -0.579486 1.574992 2.538714 -0.000002 0.000001 -0.000002 0.298632 2.009585 -16.903093 0.539675 2.676800 -22.793552 0.036385 0.708428 -5.880801 0.000000 -0.000001 -0.000003 0.298072 2.007737 -16.887103 0.540414 2.678579 -22.809572 0.036393 0.708422 -5.880813 0.000001 -0.000001 -0.000000 0.298640 2.009590 -16.903096 0.539659 2.676797 -22.793555 0.036391 0.708425 -5.880806 -0.000001 0.000001 0.000001 0.069454 27.515631 12.075457 0.000000 0.000000 0.000000 -38.169126 47.324567 12.915028 0.000004 21.820989 -0.000005 -5.238191 -8.489156 -16.557386 -1.849249 -3.581791 -6.586147 4.637206 -8.634134 -0.225410 -1.273762 0.137304 -2.094875 -0.000002 -0.000001 -0.000004 0.480707 -2.544860 21.389427 1.003288 -3.603131 31.111283 0.099728 -1.175697 9.694913 -0.000001 -0.000000 -0.000002 0.480691 -2.544865 21.389436 1.003303 -3.603130 31.111286 0.099713 -1.175697 9.694901 -0.000002 -0.000001 -0.000002 0.480704 -2.544859 21.389434 1.003301 -3.603128 31.111303 0.099727 -1.175688 9.694909 -0.000003 -0.000000 0.000001 -57.298416 -3.349207 1.796288 116.016500 -5.316582 0.656744 -10.004742 -3.122989 -7.968852 -63.355523 -32.532498 26.869737 0.000000 -0.000002 0.000001 -89.005479 -13.173201 -13.647678 109.728703 -10.581997 5.055933 -46.075999 -13.161412 7.506182 -9.529523 0.000043 0.000002 -0.000001 0.000000 -0.000001 
